<svg width="1325" height="217" viewBox="0 0 1325 217" fill="none" xmlns="http://www.w3.org/2000/svg">
<path d="M95.6543 146.338V0H146.924V146.338C146.924 160.596 143.652 172.949 137.109 183.398C130.664 193.848 121.875 201.953 110.742 207.715C99.707 213.379 87.3047 216.211 73.5352 216.211C59.2773 216.211 46.582 213.818 35.4492 209.033C24.4141 204.248 15.7227 196.875 9.375 186.914C3.125 176.953 0 164.258 0 148.828H51.5625C51.5625 156.055 52.3926 161.719 54.0527 165.82C55.7129 169.824 58.1543 172.656 61.377 174.316C64.6973 175.879 68.75 176.66 73.5352 176.66C78.2227 176.66 82.1777 175.488 85.4004 173.145C88.7207 170.703 91.2598 167.236 93.0176 162.744C94.7754 158.154 95.6543 152.686 95.6543 146.338ZM234.229 0V213.281H182.959V0H234.229ZM363.428 44.8242L311.426 213.281H256.201L334.57 0H369.58L363.428 44.8242ZM406.494 213.281L354.346 44.8242L347.607 0H383.057L461.865 213.281H406.494ZM404.443 133.74V173.438H295.02V133.74H404.443ZM494.238 0L533.496 92.5781L572.9 0H628.271L559.717 136.67V213.281H507.422V136.67L438.721 0H494.238ZM745.605 0H797.021V139.307C797.021 155.908 793.555 169.971 786.621 181.494C779.688 192.92 769.971 201.562 757.471 207.422C744.971 213.281 730.273 216.211 713.379 216.211C696.68 216.211 681.982 213.281 669.287 207.422C656.689 201.562 646.826 192.92 639.697 181.494C632.666 169.971 629.15 155.908 629.15 139.307V0H680.713V139.307C680.713 148.096 681.982 155.273 684.521 160.84C687.061 166.309 690.771 170.312 695.654 172.852C700.537 175.391 706.445 176.66 713.379 176.66C720.41 176.66 726.318 175.391 731.104 172.852C735.889 170.312 739.502 166.309 741.943 160.84C744.385 155.273 745.605 148.096 745.605 139.307V0ZM1045.02 173.73V213.281H937.207V173.73H1045.02ZM955.518 0V213.281H904.102V0H955.518ZM1121.34 0V213.281H1070.07V0H1121.34ZM1273.24 0H1324.66V139.307C1324.66 155.908 1321.19 169.971 1314.26 181.494C1307.32 192.92 1297.61 201.562 1285.11 207.422C1272.61 213.281 1257.91 216.211 1241.02 216.211C1224.32 216.211 1209.62 213.281 1196.92 207.422C1184.33 201.562 1174.46 192.92 1167.33 181.494C1160.3 169.971 1156.79 155.908 1156.79 139.307V0H1208.35V139.307C1208.35 148.096 1209.62 155.273 1212.16 160.84C1214.7 166.309 1218.41 170.312 1223.29 172.852C1228.17 175.391 1234.08 176.66 1241.02 176.66C1248.05 176.66 1253.96 175.391 1258.74 172.852C1263.53 170.312 1267.14 166.309 1269.58 160.84C1272.02 155.273 1273.24 148.096 1273.24 139.307V0Z" fill="#D9D9D9"/>
</svg>
